Coordinates
version=1
nRows=8
nColumns=63
inDegrees=yes

Units are S.I. units (second, meters, Newtons, ...)
If the header above contains a line with 'inDegrees', this indicates whether rotational values are in degrees (yes) or radians (no).

endheader
time	pelvis_tilt	pelvis_list	pelvis_rotation	pelvis_tx	pelvis_ty	pelvis_tz	hip_flexion_r	hip_adduction_r	hip_rotation_r	knee_angle_r	knee_angle_r_beta	ankle_angle_r	subtalar_angle_r	mtp_angle_r	hip_flexion_l	hip_adduction_l	hip_rotation_l	knee_angle_l	knee_angle_l_beta	ankle_angle_l	subtalar_angle_l	mtp_angle_l	L5_S1_Flex_Ext	L5_S1_Lat_Bending	L5_S1_axial_rotation	L4_L5_Flex_Ext	L4_L5_Lat_Bending	L4_L5_axial_rotation	L3_L4_Flex_Ext	L3_L4_Lat_Bending	L3_L4_axial_rotation	L2_L3_Flex_Ext	L2_L3_Lat_Bending	L2_L3_axial_rotation	L1_L2_Flex_Ext	L1_L2_Lat_Bending	L1_L2_axial_rotation	L1_T12_Flex_Ext	L1_T12_Lat_Bending	L1_T12_axial_rotation	Abs_r3	Abs_r2	Abs_r1	Abs_t1	Abs_t2	neck_flexion	neck_bending	neck_rotation	arm_flex_r	arm_add_r	arm_rot_r	elbow_flex_r	pro_sup_r	wrist_flex_r	wrist_dev_r	arm_flex_l	arm_add_l	arm_rot_l	elbow_flex_l	pro_sup_l	wrist_flex_l	wrist_dev_l
      1.22033898	     -7.63360143	    -25.01929244	     98.39393129	      0.28891662	      0.60285144	      0.94160298	     42.72893326	     -5.27526334	      1.81692409	     31.25356286	      0.54547757	     29.28924186	    -18.22135041	      0.00000000	     35.02982097	      4.23811681	    -12.72081534	     15.26431774	      0.26641260	     33.45718074	     17.41726439	      0.00000000	     -0.16975283	     -0.99086040	      2.84176152	     -0.31524799	     -1.31784433	      3.01937162	     -0.27888693	     -2.40917797	      3.01937162	     -0.19401051	     -2.40917797	      2.48654133	     -0.15763248	     -2.02056252	      2.30893124	     -0.09699677	     -1.53484275	      2.13132114	     -1.21252752	    -11.20881098	     15.80502505	      0.00000000	      0.00000000	     16.78073317	      6.43171439	    -15.60287974	     23.67895038	    -20.04306348	     11.30835686	     81.91901300	     89.48459613	    -30.42966691	    -14.31873150	      8.00058351	    -18.75589202	     33.61571111	     73.27964729	     89.01201419	    -47.48518708	    -14.85938149
      1.23728814	     -8.01695257	    -25.76126878	     98.83258922	      0.28820115	      0.60318469	      0.94238630	     43.49012683	     -5.98812567	      2.04578981	     31.44546883	      0.54882697	     29.17019634	    -18.22061111	      0.00000000	     35.36996275	      5.10862688	    -12.16122822	     14.26179965	      0.24891536	     32.64868028	     17.25829396	      0.00000000	     -0.19589392	     -1.05383014	      2.80568638	     -0.36379460	     -1.40159409	      2.98104177	     -0.32183413	     -2.56228261	      2.98104177	     -0.22388716	     -2.56228261	      2.45497558	     -0.18190710	     -2.14897043	      2.27962018	     -0.11193379	     -1.63238289	      2.10426478	     -1.39925070	    -11.92113736	     15.60438592	      0.00000000	      0.00000000	     17.23286630	      6.84530190	    -15.88826566	     25.76931367	    -19.87594064	     13.37743357	     78.01971154	     89.44878148	    -40.65228505	    -21.49131003	      7.98398369	    -18.88989746	     33.24617259	     73.80265768	     89.01861729	    -46.68504915	    -14.40313064
      1.25423729	     -8.28056024	    -26.56484565	     99.30723830	      0.28740789	      0.60307855	      0.94337373	     44.41061585	     -6.59828483	      2.33740789	     31.74647602	      0.55408053	     29.17867278	    -18.29731404	      0.00000000	     35.85564070	      5.85841795	    -11.61220491	     13.42156778	      0.23425055	     31.86604954	     17.28887991	      0.00000000	     -0.21126929	     -1.09828771	      2.78712277	     -0.39234820	     -1.46072265	      2.96131794	     -0.34709432	     -2.67037674	      2.96131794	     -0.24145967	     -2.67037674	      2.43873242	     -0.19618466	     -2.23962830	      2.26453725	     -0.12071927	     -1.70124766	      2.09034208	     -1.50907542	    -12.42405022	     15.50114070	      0.00000000	      0.00000000	     17.78883723	      6.98753222	    -16.20545521	     27.06284968	    -19.53079185	     13.51863332	     75.73542948	     89.43452603	    -44.94242625	    -22.75221467	      7.94758077	    -18.95756183	     32.80996838	     74.92344934	     89.01804259	    -45.66241069	    -13.50497298
      1.27118644	     -8.09127790	    -27.25389086	     99.87916668	      0.28645700	      0.60276111	      0.94466879	     45.25192112	     -6.79841773	      2.58061123	     32.00037017	      0.55851182	     29.07604269	    -18.31207822	      0.00000000	     36.42421454	      6.15385883	    -11.19687034	     12.88012182	      0.22480053	     31.27571981	     17.50434455	      0.00000000	     -0.23305900	     -1.07730320	      2.81117565	     -0.43281388	     -1.43281325	      2.98687413	     -0.38289264	     -2.61935499	      2.98687413	     -0.26636314	     -2.61935499	      2.45977870	     -0.21641859	     -2.19683668	      2.28408022	     -0.13316992	     -1.66874265	      2.10838174	     -1.66471717	    -12.18666921	     15.63491563	      0.00000000	      0.00000000	     18.51836106	      6.59333548	    -16.46688434	     27.96607786	    -19.28495867	     12.47864227	     74.11314006	     89.42096871	    -45.49536591	    -22.90480327	      7.97004692	    -18.79843530	     32.77650371	     76.16425374	     89.01074168	    -45.45199773	    -13.37868876
      1.28813559	     -7.92749407	    -27.87517589	    100.35856364	      0.28561418	      0.60218595	      0.94564380	     46.02889483	     -6.96411481	      2.80540017	     32.27668172	      0.56333437	     29.23386021	    -18.33487726	      0.00000000	     36.93443810	      6.40901213	    -10.76553547	     12.46202090	      0.21750330	     30.76207478	     17.66700442	      0.00000000	     -0.25172085	     -1.05446668	      2.86375141	     -0.46747078	     -1.40244069	      3.04273587	     -0.41355218	     -2.56383030	      3.04273587	     -0.28769175	     -2.56383030	      2.50578248	     -0.23374798	     -2.15026846	      2.32679802	     -0.14383329	     -1.63336889	      2.14781355	     -1.79801683	    -11.92833802	     15.92732619	      0.00000000	      0.00000000	     19.26537676	      6.06344764	    -16.74245036	     28.99352529	    -19.25676704	     11.69347443	     72.30966700	     89.41501829	    -45.79704566	    -22.90473146	      7.83571815	    -18.76950360	     32.91746646	     77.65121513	     89.06501798	    -45.22273724	    -13.39040302
      1.30508475	     -8.36492510	    -28.62052929	    100.97605997	      0.28434220	      0.60109946	      0.94642249	     47.07876107	     -7.87448671	      3.09804135	     33.04922156	      0.57681773	     29.33479698	    -18.49052992	      0.00000000	     37.38132701	      7.44303192	    -10.06879684	     11.91063999	      0.20787988	     30.02203060	     17.34348011	      0.00000000	     -0.27896809	     -1.10416966	      2.75099178	     -0.51807164	     -1.46854565	      2.92292876	     -0.45831668	     -2.68467812	      2.92292876	     -0.31883263	     -2.68467812	      2.40711780	     -0.25904977	     -2.25162278	      2.23518082	     -0.15940237	     -1.71035881	      2.06324383	     -1.99264117	    -12.49058807	     15.30019096	      0.00000000	      0.00000000	     20.16342974	      4.79757441	    -17.76267674	     30.51846930	    -18.94460436	     11.86803551	     70.04808944	     89.39155282	    -46.80621849	    -23.39929662	      6.81916997	    -19.46051171	     32.21066109	     80.42810523	     89.17555447	    -44.26497188	    -12.79639573
      1.32203390	     -8.48646595	    -29.03709125	    101.41284068	      0.28372017	      0.60019220	      0.94672014	     47.70298106	     -8.28836308	      3.30839785	     33.56482560	      0.58581672	     29.59110027	    -18.42380156	      0.00000000	     37.61914394	      7.93836315	     -9.57278894	     11.59001662	      0.20228395	     29.58075757	     17.16492547	      0.00000000	     -0.31466401	     -1.11292558	      2.70451640	     -0.58436253	     -1.48019103	      2.87354868	     -0.51696150	     -2.70596726	      2.87354868	     -0.35962950	     -2.70596726	      2.36645185	     -0.29219700	     -2.26947785	      2.19741958	     -0.17979901	     -1.72392173	      2.02838730	     -2.24761355	    -12.58963678	     15.04170887	      0.00000000	      0.00000000	     20.92648678	      3.78454212	    -18.29232870	     32.22871643	    -18.93845803	     12.76751743	     67.32102878	     89.38258686	    -48.13796396	    -23.31641033	      5.86378136	    -20.07864875	     31.60601870	     82.76962350	     89.28102268	    -42.84463689	    -12.64214711
      1.33898305	     -8.37351873	    -29.30022450	    102.08832537	      0.28265096	      0.59927135	      0.94694009	     48.08014179	     -8.67425451	      3.13349543	     33.92585800	      0.59211792	     29.95410913	    -18.30420340	      0.00000000	     37.81608534	      8.31571549	     -8.89507050	     11.42103857	      0.19933473	     29.53671924	     17.06348609	      0.00000000	     -0.33780882	     -1.08958785	      2.61555451	     -0.62734477	     -1.44915183	      2.77902666	     -0.55498612	     -2.64922389	      2.77902666	     -0.38608170	     -2.64922389	      2.28861019	     -0.31368927	     -2.22188753	      2.12513804	     -0.19302396	     -1.68777157	      1.96166588	     -2.41293465	    -12.32563562	     14.54692951	      0.00000000	      0.00000000	     21.52579308	      3.09628015	    -18.16142347	     34.20329207	    -19.04769837	     14.76605084	     63.88945133	     89.36377153	    -50.95417132	    -23.28591706	      4.70644194	    -20.53397716	     30.64016387	     84.98198979	     89.35656677	    -40.73430776	    -12.11707169
